<svg width="100" height="16" viewBox="0 0 100 16" fill="none" xmlns="http://www.w3.org/2000/svg">
<path fill-rule="evenodd" clip-rule="evenodd" d="M24.9606 3.09093C25.3814 3.69699 25.6418 4.47517 25.7422 5.42426H22.2247C22.1442 4.8988 21.9241 4.47517 21.5627 4.15153C21.1821 3.8085 20.641 3.63638 19.9393 3.63638C19.338 3.63638 18.857 3.75759 18.4962 4.00002C18.1354 4.24244 17.9551 4.59577 17.9551 5.06062C17.9551 5.44426 18.0855 5.73759 18.3459 5.93941C18.6261 6.14123 19.0271 6.29274 19.5484 6.39396L21.5327 6.8485C22.3949 7.03032 23.1363 7.28305 23.7574 7.60608C24.3984 7.92911 24.8896 8.35335 25.2305 8.8788C25.5708 9.42426 25.7512 10.1006 25.7711 10.9091C25.7512 11.8582 25.5005 12.6764 25.0195 13.3637C24.5385 14.0509 23.8674 14.5758 23.0052 14.9394C22.1231 15.3037 21.1009 15.4952 19.9387 15.5152C18.8564 15.5152 17.8643 15.3437 16.9624 15C16.0406 14.6358 15.2788 14.0909 14.6775 13.3637C14.0762 12.6164 13.7155 11.657 13.5952 10.4849H17.0826C17.2029 11.1309 17.5137 11.6267 18.0146 11.9697C18.5359 12.3127 19.2069 12.4946 20.0289 12.5146C20.6903 12.4946 21.1809 12.3837 21.502 12.1812C21.8423 11.9594 22.0131 11.6461 22.0131 11.2418C22.0329 10.9994 21.9331 10.7673 21.7124 10.5449C21.5122 10.323 21.1214 10.1515 20.54 10.0297L18.225 9.51456C16.8421 9.21153 15.8097 8.72668 15.1285 8.06002C14.4671 7.37335 14.1363 6.46426 14.1363 5.33274C14.1363 4.38305 14.3769 3.56487 14.8579 2.8782C15.3191 2.19153 15.9702 1.65577 16.812 1.27214C17.634 0.908501 18.6056 0.726683 19.7282 0.726683C20.3097 0.706683 20.9206 0.76729 21.5621 0.908502C22.2241 1.04971 22.8549 1.29214 23.4562 1.63577C24.0586 1.98002 24.5595 2.46487 24.9606 3.09093ZM28.8087 1.03032H34.4908C35.9741 1.05032 37.2771 1.35335 38.3991 1.93941C39.5415 2.52547 40.4338 3.35335 41.0748 4.42426C41.7362 5.47456 42.0669 6.69699 42.0669 8.09093C42.0669 9.50487 41.7356 10.7376 41.0748 11.7885C40.4338 12.8594 39.5415 13.697 38.3991 14.303C37.2771 14.8891 35.9741 15.1921 34.4908 15.2121H28.8087V1.03032ZM34.4908 4.21214H32.3262V12.0606H34.4908C35.2526 12.0406 35.9339 11.8588 36.5351 11.5158C37.1563 11.1727 37.6373 10.7073 37.9776 10.1218C38.339 9.51577 38.5188 8.83881 38.5188 8.09093C38.5188 7.34365 38.3384 6.67699 37.9776 6.09093C37.6373 5.50486 37.1563 5.05032 36.5351 4.72729C35.9339 4.38365 35.252 4.21214 34.4908 4.21214ZM11.0109 3.45456C11.4919 4.24244 11.7324 5.16184 11.7324 6.21214C11.7324 7.32305 11.4715 8.28305 10.9508 9.09093C10.4499 9.8988 9.738 10.5152 8.81624 10.9394C7.89448 11.3837 6.78212 11.6061 5.47916 11.6061H3.6152V15.2121H0.0977173V1.03032H5.77979C7.00279 1.03032 8.05503 1.24244 8.9365 1.66668C9.83842 2.09093 10.5299 2.68668 11.0109 3.45456ZM5.6896 4.15153H3.6152V8.51517H5.6896C6.47126 8.51517 7.09238 8.31335 7.55356 7.90911C7.9943 7.50487 8.22519 6.93941 8.24503 6.21214C8.22519 5.56547 7.9943 5.06062 7.55356 4.69699C7.09238 4.33335 6.47126 4.15153 5.6896 4.15153ZM57.7001 4.30305C58.3411 3.19214 59.2232 2.32305 60.3451 1.69699C61.4677 1.07093 62.74 0.747289 64.1638 0.727289C65.4464 0.747289 66.5888 1.01032 67.5905 1.51517C68.5929 2.04062 69.4148 2.75759 70.0564 3.66668C70.6775 4.59577 71.0581 5.67699 71.1982 6.90911H67.6212C67.4204 6.02002 67.0301 5.32305 66.4487 4.8182C65.8474 4.29274 65.076 4.03032 64.1332 4.03032C63.3714 4.03032 62.7003 4.21214 62.1189 4.57577C61.5375 4.91941 61.0769 5.39396 60.736 6.00002C60.4155 6.62608 60.2549 7.33335 60.2549 8.12123C60.2549 8.90911 60.4155 9.61638 60.736 10.2424C61.0763 10.8485 61.5375 11.3237 62.1189 11.6673C62.7003 12.0309 63.3714 12.2121 64.1332 12.2121C65.0754 12.2121 65.8474 11.9497 66.4487 11.4243C67.0301 10.9194 67.4204 10.2224 67.6212 9.33335H71.1982C71.0581 10.5661 70.6775 11.6467 70.0564 12.5758C69.4154 13.4849 68.5929 14.2024 67.5905 14.7273C66.5888 15.2321 65.4464 15.4952 64.1638 15.5152C62.7406 15.4952 61.4683 15.1721 60.3451 14.5455C59.2232 13.9194 58.3411 13.0503 57.7001 11.9394C57.0586 10.8279 56.7279 9.55517 56.708 8.12123C56.7279 6.68668 57.0586 5.41396 57.7001 4.30305ZM88.3653 5.33335C88.3653 4.38365 88.6052 3.56547 89.0862 2.8788C89.5474 2.19214 90.1992 1.65638 91.0404 1.27274C91.8623 0.909108 92.834 0.727289 93.9572 0.727289C94.5386 0.707289 95.1495 0.767896 95.7911 0.909108C96.4525 1.05032 97.0838 1.29274 97.6851 1.63638C98.2864 1.98002 98.7872 2.46487 99.1883 3.09093C99.6086 3.69699 99.8695 4.47517 99.9699 5.42426H96.4525C96.3725 4.8988 96.1518 4.47517 95.7911 4.15153C95.4099 3.8085 94.8693 3.63638 94.1676 3.63638C93.5663 3.63638 93.0853 3.75759 92.7251 4.00002C92.3638 4.24244 92.184 4.59577 92.184 5.06062C92.184 5.44426 92.3145 5.73759 92.5748 5.93941C92.855 6.14123 93.2561 6.29274 93.7774 6.39396L95.7616 6.8485C96.6238 7.03032 97.3646 7.28305 97.9863 7.60608C98.6273 7.92911 99.1185 8.35335 99.4589 8.8788C99.7998 9.42426 99.9802 10.1006 100 10.9091C99.9802 11.8582 99.7294 12.6764 99.2484 13.3637C98.7674 14.0509 98.0958 14.5758 97.2341 14.9394C96.3521 15.3037 95.3299 15.4952 94.167 15.5152C93.0847 15.5152 92.0926 15.3437 91.1907 15C90.2689 14.6358 89.5071 14.0909 88.9058 13.3637C88.3046 12.6164 87.9438 11.657 87.8235 10.4849H91.3109C91.4312 11.1309 91.7421 11.6267 92.2429 11.9697C92.7642 12.3127 93.4352 12.4946 94.2578 12.5146C94.9192 12.4946 95.4098 12.3837 95.7309 12.1812C96.0713 11.9594 96.242 11.6461 96.242 11.2418C96.2619 10.9994 96.1614 10.7673 95.9414 10.5449C95.7412 10.323 95.3503 10.1515 94.7689 10.0297L92.454 9.51456C91.071 9.21153 90.0386 8.72668 89.3574 8.06002C88.696 7.37396 88.3653 6.46486 88.3653 5.33335ZM74.0549 5.33335C74.0549 4.38365 74.2954 3.56547 74.7764 2.8788C75.2376 2.19214 75.8894 1.65638 76.7306 1.27274C77.5525 0.909108 78.5242 0.727289 79.6474 0.727289C80.2282 0.707289 80.8397 0.767896 81.4812 0.909108C82.1427 1.05032 82.7734 1.29274 83.3747 1.63638C83.976 1.98002 84.4774 2.46487 84.8779 3.09093C85.2988 3.69699 85.5597 4.47517 85.6601 5.42426H82.1421C82.0621 4.8988 81.8414 4.47517 81.4807 4.15153C81.0994 3.8085 80.5589 3.63638 79.8572 3.63638C79.2559 3.63638 78.7749 3.75759 78.4141 4.00002C78.0534 4.24244 77.8736 4.59577 77.8736 5.06062C77.8736 5.44426 78.0041 5.73759 78.2638 5.93941C78.5446 6.14123 78.9457 6.29274 79.4664 6.39396L81.4512 6.8485C82.3128 7.03032 83.0542 7.28305 83.6753 7.60608C84.3169 7.92911 84.8081 8.35335 85.1484 8.8788C85.4888 9.42426 85.6698 10.1006 85.6896 10.9091C85.6698 11.8582 85.419 12.6764 84.938 13.3637C84.457 14.0509 83.7853 14.5758 82.9231 14.9394C82.0416 15.3037 81.0195 15.4952 79.8566 15.5152C78.7743 15.5152 77.7822 15.3437 76.8803 15C75.9585 14.6358 75.1967 14.0909 74.5954 13.3637C73.9941 12.6164 73.6334 11.657 73.5131 10.4849H77.0005C77.1208 11.1309 77.4316 11.6267 77.9325 11.9697C78.4538 12.3127 79.1248 12.4946 79.9474 12.5146C80.6088 12.4946 81.0994 12.3837 81.4199 12.1812C81.7608 11.9594 81.9316 11.6461 81.9316 11.2418C81.9515 10.9994 81.851 10.7673 81.631 10.5449C81.4301 10.323 81.0399 10.1515 80.4585 10.0297L78.1436 9.51456C76.76 9.21153 75.7282 8.72668 75.047 8.06002C74.3856 7.37396 74.0549 6.46486 74.0549 5.33335Z" fill="#2D3236"/>
</svg>
