<svg width="115" height="20" viewBox="0 0 115 20" fill="none" xmlns="http://www.w3.org/2000/svg">
<path fill-rule="evenodd" clip-rule="evenodd" d="M108.861 3.78788C108.36 3.80788 107.959 3.9697 107.659 4.27273C107.378 4.55576 107.208 4.9697 107.147 5.51515H103.81C103.83 4.56606 104.041 3.73758 104.441 3.03031C104.823 2.30303 105.384 1.73758 106.126 1.33333C106.867 0.929092 107.769 0.727274 108.831 0.727274C109.933 0.727274 110.865 0.929092 111.627 1.33333C112.388 1.71697 112.969 2.24243 113.37 2.90909C113.771 3.55576 113.972 4.27273 113.972 5.06061C113.972 5.52546 113.871 5.99031 113.671 6.45455C113.47 6.9194 113.159 7.43455 112.739 8C112.318 8.56606 111.767 9.25273 111.085 10.0606L109.191 12.3636H114.092V15.2121H104.111V13.5455L108.381 8.30303C108.801 7.81818 109.163 7.39394 109.463 7.03031C109.764 6.66667 109.994 6.34364 110.154 6.06061C110.315 5.77758 110.395 5.48485 110.395 5.18182C110.395 4.83818 110.274 4.52546 110.034 4.24243C109.813 3.9594 109.423 3.80788 108.861 3.78788ZM39.985 9.15152L31.7475 5.51515V0.030304L46.1781 6.39394L39.985 9.15152ZM48.1022 7.21212V12.7273L31.7475 19.9091V14.4242L48.1022 7.21212ZM16.3548 0.030304V5.51515L8.11725 9.15152L1.89402 6.39394L16.3548 0.030304ZM16.3548 19.9091L0 12.7273V7.21212L16.3548 14.4242V19.9091Z" fill="#28A9E0"/>
</svg>
